# xmcd
#
# Track frame offsets:
#	150
#	16560
#	34146
#	52407
#	77325
#	93789
#	111783
#	121901
#	145259
#	166761
#	181637
#	203643
#	221355
#	242123
#
# Disc length: 3394 seconds
#
# Revision: 0
# Processed by: cddbd v1.5.2PL0 Copyright (c) Steve Scherf et al.
# Submitted via: EasyCDDAExtractor 12.0.5.1
#
DISCID=a80d400e
DTITLE=Various Artist - To The Water
DYEAR=2006
DGENRE=Country
TTITLE0=Wayne Davis - Aint Much Going On
TTITLE1=Wayne Davis - Mama's Roses
TTITLE2=Wayne Davis - Cadilac
TTITLE3=Wayne Davis - Irene Davis - To The Water
TTITLE4=Wayne Davis - Say Something Good
TTITLE5=Wayne Davis - Go Long
TTITLE6=Wayne Davis - Smart Enough
TTITLE7=Wayne Davis - Daddy
TTITLE8=Wayne Davis - The Table
TTITLE9=Wayne Davis - Chalk Chicken
TTITLE10=Wayne Davis - Didn't Know It At The Time
TTITLE11=George Davis - Booger Man In The Bushes
TTITLE12=Wayne Davis - Keith Perry - Bernie Falkner - Porch Light
TTITLE13=Wayne Davis - Learn It On My Own
EXTD=
EXTT0=
EXTT1=
EXTT2=
EXTT3=
EXTT4=
EXTT5=
EXTT6=
EXTT7=
EXTT8=
EXTT9=
EXTT10=
EXTT11=
EXTT12=
EXTT13=
PLAYORDER=
